<?xml version="1.0" encoding="UTF-8"?>
<svg id="Calque_1" data-name="Calque 1" xmlns="http://www.w3.org/2000/svg" viewBox="0 0 1440.63 936.35">
  <defs>
    <style>
      .cls-1 {
        stroke-width: 0px;
      }
    </style>
  </defs>
  <path class="cls-1" d="m1437.96,932.66c-68.43.04-138.19.03-207.02-.27-163.29-.72-327.77-.98-491.86-.98-197.26,0-393.92.38-586.93.73-49.48.09-99.84.18-150.4.27.23,1.21.06,2.54-.51,3.67,50.72-.09,101.26-.18,150.91-.27,353.58-.67,719.2-1.35,1078.78.25,51.52.23,103.55.29,155.17.29,17.34,0,34.63,0,51.84-.02-.07-1.23-.06-2.45,0-3.67Z"/>
  <path class="cls-1" d="m1226.77,902.75c-35.29-2.23-71.3-5.59-106.12-8.84-79.09-7.38-160.88-15.01-241-10.07-38.4,2.38-77.47,6.09-115.24,9.69-58.52,5.57-119.03,11.33-178.54,12.21-73.01,1.07-147.29-3.72-219.12-8.38-51.62-3.34-104.99-6.79-157.48-8.04-68.09-1.6-137.29,3.25-204.21,7.95-1.21.08-2.43.17-3.64.25.22,1.23.03,2.57-.58,3.71,1.45-.1,2.91-.2,4.35-.3,66.88-4.7,136.03-9.55,204.03-7.93,52.45,1.25,105.81,4.7,157.41,8.04,71.88,4.64,146.19,9.46,219.27,8.38,59.58-.88,120.13-6.64,178.69-12.22,37.76-3.6,76.81-7.31,115.18-9.68,79.97-4.93,161.68,2.7,240.71,10.07,34.83,3.26,70.85,6.61,106.16,8.84,44.03,2.77,88.42,3.68,132.6,3.68,27.24,0,54.4-.35,81.35-.81.03-1.22.04-2.45.04-3.68-70.65,1.21-142.75,1.62-213.86-2.87Z"/>
  <path class="cls-1" d="m1437.65,879.12c-69.83,3.13-141.07,4.64-211.43-3.09-40.63-4.46-81.86-10.33-121.73-16.01-21.07-3-42.85-6.1-64.3-8.96-5.29-.71-10.58-1.42-15.88-2.15-50.17-6.83-102.06-13.88-153.04-8.16-38.45,4.31-77.44,11.02-115.15,17.49-52.15,8.96-106.08,18.23-159.35,21.31-50.64,2.93-102.89-3.05-153.42-8.83-13.43-1.53-27.33-3.12-40.88-4.5-8.7-.88-17.4-1.78-26.1-2.68-60.23-6.21-122.52-12.64-183.94-15.37-63.84-2.84-128.46,6-190.98,14.61.09.22.19.43.25.67.25.93.17,2.01-.16,3,62.49-8.6,127.08-17.44,190.81-14.61,61.36,2.72,123.62,9.15,183.83,15.36,8.7.89,17.4,1.79,26.09,2.68,13.54,1.38,27.43,2.97,40.86,4.5,50.61,5.79,102.93,11.77,153.74,8.83,53.37-3.08,107.36-12.36,159.56-21.33,37.68-6.48,76.65-13.17,115.04-17.48,50.75-5.69,102.52,1.35,152.59,8.16,5.3.72,10.59,1.44,15.88,2.15,21.43,2.86,43.22,5.96,64.28,8.96,39.89,5.68,81.13,11.55,121.79,16.02,37.89,4.17,76.01,5.65,114.03,5.65,32.81,0,65.53-1.11,97.95-2.57-.1-1.22-.22-2.44-.34-3.66Z"/>
  <path class="cls-1" d="m1225.36,851.42c-41.35-6.2-83.22-14.48-123.71-22.49-21.39-4.22-43.51-8.6-65.29-12.61-5.67-1.05-11.34-2.12-17.03-3.19-50.07-9.45-101.84-19.23-152.43-11.32-36.83,5.75-74.05,14.98-110.04,23.9-49.12,12.17-99.9,24.76-150.35,28.7-27.87,2.17-56.77-1.28-84.71-4.64-6.37-.76-12.96-1.55-19.38-2.26-33.93-3.72-67.13-8.37-97.95-12.84-8.93-1.29-17.87-2.6-26.8-3.92-62.75-9.2-127.64-18.72-191.77-22.72-61.84-3.86-124.01,8.33-184.21,20.41.19,1.29-.07,2.7-.78,3.86,60.44-12.14,122.88-24.48,184.87-20.61,64.05,4,128.9,13.5,191.61,22.71,8.93,1.31,17.87,2.62,26.81,3.92,30.84,4.48,64.05,9.13,98.02,12.84,6.41.71,12.99,1.49,19.36,2.26,28.03,3.37,57.02,6.83,85.08,4.65,50.61-3.95,101.47-16.55,150.66-28.74,35.96-8.92,73.14-18.13,109.87-23.87,50.27-7.85,101.88,1.89,151.78,11.31,5.69,1.07,11.37,2.15,17.03,3.19,21.78,4.02,43.89,8.39,65.27,12.61,40.52,8.01,82.41,16.29,123.8,22.5,33.67,5.05,67.44,6.96,101.15,6.96,37.2,0,74.29-2.34,110.98-5.34.07-1.23.12-2.46.13-3.68-69.91,5.73-141.26,9.02-211.97-1.59Z"/>
  <path class="cls-1" d="m1437.63,829.05c-81.11,11.41-148.47,11.25-211.94-.52-41.48-7.7-83.38-18.11-123.9-28.18-21.42-5.32-43.56-10.83-65.39-15.87-5.32-1.23-10.66-2.49-16.03-3.75-50.19-11.83-102.09-24.08-152.5-14.45-35.76,6.83-71.73,18.16-106.52,29.14-46.88,14.78-95.35,30.06-143.86,34.49-28.65,2.6-58.6-1.95-87.55-6.34-6.06-.93-12.33-1.87-18.42-2.73-34.54-4.87-68.25-10.97-99.52-16.84-8.99-1.69-17.98-3.39-26.97-5.1-63.83-12.12-129.83-24.65-195.29-29.84-63.25-5.01-126.38,10.86-187.46,26.38.26,1.3.08,2.71-.62,3.88,61.26-15.57,124.6-31.63,187.93-26.61,65.35,5.18,131.31,17.71,195.08,29.82,8.99,1.71,17.99,3.41,26.98,5.1,31.3,5.87,65.03,11.98,99.6,16.85,6.08.85,12.35,1.81,18.4,2.73,29.06,4.41,59.12,8.97,88,6.35,48.72-4.44,97.29-19.76,144.27-34.57,34.74-10.95,70.66-22.28,106.3-29.09,50.02-9.56,101.71,2.63,151.71,14.43,5.37,1.27,10.72,2.53,16.05,3.76,21.81,5.04,43.95,10.54,65.35,15.86,40.55,10.08,82.47,20.5,124.02,28.21,32.32,5.99,65.64,8.99,101.26,8.99s71.18-2.82,111.17-8.41c-.21-1.22-.25-2.47-.15-3.67Z"/>
  <path class="cls-1" d="m1334.7,818.09c-38.53,2.27-76.11-4.46-107.78-11.34-41.19-8.95-82.66-21.25-122.77-33.15-21.19-6.29-43.11-12.79-64.73-18.73-4.38-1.2-8.78-2.42-13.2-3.65-50.54-14.07-102.8-28.61-153.44-17.74-35.27,7.57-70.57,20.67-104.71,33.34-45.47,16.87-92.49,34.32-139.93,38.88-29.32,2.82-60.1-2.78-89.86-8.19-5.3-.96-10.79-1.96-16.11-2.88-34.56-5.96-69.52-13.79-99.15-20.65-8.88-2.05-17.76-4.14-26.64-6.22-63.65-14.92-129.46-30.34-195.01-36.6-65.98-6.29-131.47,13.06-194.81,31.78-1.67.49-3.36.99-5.04,1.48.33,1.32.18,2.75-.66,3.94,2.08-.61,4.16-1.22,6.24-1.83,63.16-18.67,128.47-37.96,194.09-31.71,65.42,6.24,131.17,21.65,194.76,36.55,8.88,2.08,17.77,4.17,26.65,6.22,29.67,6.87,64.65,14.71,99.26,20.68,5.32.92,10.8,1.92,16.1,2.88,29.89,5.44,60.8,11.06,90.37,8.22,47.69-4.59,94.83-22.07,140.42-38.99,34.07-12.64,69.31-25.71,104.44-33.26,50.19-10.77,102.22,3.71,152.54,17.71,4.42,1.23,8.83,2.46,13.21,3.66,21.6,5.93,43.51,12.43,64.69,18.71,40.15,11.91,81.65,24.22,122.91,33.18,27.5,5.97,59.44,11.82,92.64,11.82,5.19,0,10.41-.15,15.65-.47,37.48-2.21,74.73-8.74,103.2-14.25.03-1.26.12-2.51.25-3.76-28.48,5.53-65.92,12.12-103.57,14.34Z"/>
  <path class="cls-1" d="m1335.18,797.42c-38.45,3.31-75.36-4.04-106.4-11.66-40.59-9.97-81.31-23.92-120.68-37.42-20.8-7.13-42.31-14.5-63.55-21.2-2.83-.89-5.66-1.79-8.51-2.69-51.23-16.26-104.21-33.05-155.72-21.38-35.41,8.02-70.68,22.57-104.78,36.63-44.92,18.52-91.36,37.69-138.6,42.09-30.04,2.8-61.58-3.85-92.08-10.28-4.12-.86-8.21-1.73-12.26-2.56-33.9-6.95-68.11-16.14-97.09-24.2-8.64-2.4-17.27-4.83-25.91-7.27-62.35-17.55-126.82-35.7-191.38-42.84-69.65-7.71-138.89,14.64-205.86,36.26-3.63,1.17-7.28,2.35-10.93,3.52.35,1.25.29,2.63-.32,3.86,3.96-1.27,7.9-2.54,11.84-3.81,66.77-21.56,135.81-43.84,205.06-36.17,64.41,7.13,128.8,25.26,191.08,42.78,8.64,2.43,17.28,4.86,25.92,7.27,29.02,8.07,63.27,17.27,97.22,24.24,4.05.83,8.14,1.69,12.26,2.56,30.64,6.46,62.32,13.15,92.65,10.31,47.52-4.43,94.11-23.64,139.16-42.23,34.02-14.04,69.21-28.54,104.46-36.53,51.02-11.56,103.74,5.17,154.73,21.34,2.85.9,5.68,1.8,8.51,2.69,21.21,6.69,42.71,14.05,63.5,21.18,39.42,13.51,80.17,27.48,120.86,37.48,25.89,6.36,55.87,12.53,87.48,12.53,6.45,0,12.97-.26,19.52-.83,36.87-3.17,73.47-11.36,101.71-18.33.06-1.26.13-2.52.21-3.77-28.25,6.99-65.05,15.26-102.08,18.45Z"/>
  <path class="cls-1" d="m1335.66,776.55c-38.75,4.34-76.29-3.93-104.68-11.61-39.81-10.79-79.57-26.16-118.02-41.03-20.31-7.86-41.32-15.98-62.1-23.34l-1.47-.52c-52.55-18.6-106.88-37.84-160.29-25.72-36.23,8.22-72.12,23.95-106.84,39.16-45.24,19.82-92.02,40.32-139.91,44.32-31.12,2.6-63.61-5.23-95.03-12.8-2.11-.5-4.22-1.01-6.31-1.51-32.76-7.83-65.69-18.26-93.59-27.42-8.28-2.71-16.55-5.47-24.83-8.22-60.09-19.96-122.23-40.61-184.91-48.45-60.88-7.61-121.17,11.72-179.48,30.39l-2.22.71c-8.94,2.86-18.04,5.84-26.83,8.72-9.03,2.95-18.11,5.92-27.24,8.84.52,1.14.66,2.45.36,3.64,9.2-2.94,18.37-5.93,27.47-8.91,8.79-2.88,17.89-5.85,26.82-8.71l2.22-.72c58.11-18.61,118.2-37.87,178.66-30.31,62.5,7.81,124.54,28.43,184.54,48.37,8.28,2.75,16.55,5.5,24.83,8.22,27.93,9.17,60.91,19.61,93.75,27.47,2.09.49,4.19,1.01,6.3,1.51,31.57,7.6,64.21,15.48,95.64,12.84,48.2-4.03,95.14-24.6,140.53-44.49,34.62-15.17,70.43-30.86,106.47-39.04,52.87-12,106.94,7.15,159.22,25.66l1.48.52c20.75,7.35,41.75,15.47,62.05,23.32,38.49,14.89,78.3,30.28,118.22,41.1,23.07,6.25,52.18,12.88,83.12,12.88,7.34,0,14.78-.37,22.27-1.19,37.31-4.19,74.31-14.35,102.65-22.87.07-1.27.15-2.54.22-3.82-28.35,8.54-65.59,18.83-103.08,23.03Z"/>
  <path class="cls-1" d="m1336.08,755.08c-30.44,4.08-62.17.61-102.86-11.29-39-11.4-77.75-27.99-115.22-44.03-19.8-8.48-40.27-17.24-60.55-25.14-54.39-21.18-107.53-39.27-159.72-27.91-37.74,8.22-74.99,24.92-111.01,41.07-46.47,20.83-94.51,42.38-143.91,45.79-57.49,3.95-119.46-19.95-174.14-41.05-4.02-1.55-8-3.09-11.96-4.61-7.83-3-15.65-6.04-23.48-9.07-57.02-22.13-115.98-45.01-176.03-53.28-61.78-8.51-123.43,11.82-183.05,31.47l-6.19,2.04c-9.68,3.18-19.53,6.49-29.06,9.71-12.59,4.24-25.28,8.5-38.04,12.63.17,1.19.43,2.36.64,3.55,12.75-4.12,25.43-8.38,38.01-12.61,9.52-3.21,19.37-6.52,29.04-9.71l6.19-2.04c59.41-19.59,120.84-39.83,182.19-31.39,59.82,8.25,118.67,31.08,175.58,53.17,7.83,3.05,15.66,6.08,23.49,9.08,3.95,1.52,7.94,3.05,11.95,4.61,54.87,21.16,117.05,45.16,174.96,41.17,49.74-3.43,97.96-25.04,144.58-45.95,35.93-16.11,73.09-32.76,110.62-40.93,51.67-11.25,104.51,6.73,158.61,27.82,20.25,7.88,40.71,16.64,60.49,25.11,37.53,16.06,76.34,32.67,115.46,44.11,30.05,8.78,55.25,13.01,78.68,13.01,8.51,0,16.77-.55,24.96-1.66,36.6-4.91,71.61-15.96,101.31-26.32.03-1.26.03-2.52,0-3.78-29.74,10.4-64.88,21.53-101.56,26.45Z"/>
  <path class="cls-1" d="m1336.44,732.68c-30.44,4.55-62.6,1.12-101.21-10.82-38.27-11.83-76.09-29.43-112.66-46.45-19.32-8.99-39.3-18.29-59.12-26.63-47.42-19.96-102.69-40.31-158.55-29.07-39.99,8.05-79.36,25.56-117.44,42.49-48.61,21.62-98.87,43.98-150.67,46.67-59,3.06-120.85-24.42-175.42-48.66-7.31-3.25-14.62-6.53-21.93-9.83-53.3-23.99-108.41-48.79-165.24-57.21-62.58-9.28-125.52,11.86-186.39,32.31-3.03,1.03-6.07,2.05-9.1,3.06-10.36,3.47-20.91,7.09-31.11,10.59-15.2,5.21-30.54,10.47-45.98,15.47-.07.57-.16,1.12-.31,1.63-.04.2-.07.39-.11.59.03.56.05,1.12.06,1.68,15.78-5.1,31.44-10.47,46.97-15.8,10.2-3.49,20.74-7.11,31.1-10.58,3.03-1.02,6.06-2.04,9.1-3.06,60.65-20.38,123.38-41.45,185.51-32.24,56.56,8.38,111.54,33.12,164.71,57.05,7.31,3.28,14.62,6.58,21.94,9.83,51.93,23.07,110.44,49.06,167.05,49.06,3.09,0,6.17-.08,9.25-.24,52.15-2.71,102.59-25.14,151.36-46.83,37.98-16.89,77.25-34.36,117.02-42.36,55.35-11.13,110.28,9.11,157.43,28.95,19.78,8.33,39.74,17.62,59.05,26.6,36.64,17.05,74.52,34.68,112.92,46.55,27.89,8.62,52.46,12.84,75.45,12.84,9.07,0,17.91-.65,26.6-1.95,36.39-5.45,71.2-17.73,100.77-29.3.05-1.29.1-2.59.15-3.88-29.64,11.63-64.64,24.04-101.19,29.51Z"/>
  <path class="cls-1" d="m1336.7,708.92c-30.7,4.79-63.41,1.42-99.99-10.27-36.2-11.58-72.65-29.9-107.89-47.62-70.43-35.41-143.27-72.03-219.63-58.26-43.02,7.75-85.34,25.96-126.26,43.58-51.68,22.24-105.12,45.24-160.21,47.18-65.26,2.29-127.02-30.15-186.73-61.55-48.27-25.38-98.17-51.6-149.93-59.62-63.18-9.78-127.12,12.03-188.96,33.12-3.49,1.19-6.97,2.38-10.43,3.55-10.94,3.71-22.07,7.6-32.84,11.36-17.36,6.06-34.89,12.15-52.55,17.88,0,.27.02.53.03.8.15.86.22,1.75.23,2.72,0,.06,0,.11,0,.17,17.79-5.76,35.45-11.9,52.93-18.01,10.77-3.75,21.9-7.64,32.82-11.35,3.47-1.17,6.95-2.36,10.43-3.55,61.62-21.02,125.33-42.74,188.05-33.04,51.43,7.96,101.18,34.12,149.29,59.41,57.93,30.45,117.74,61.9,181.06,61.9,2.21,0,4.43-.04,6.66-.12,55.45-1.95,109.06-25.03,160.91-47.34,40.82-17.57,83.03-35.73,125.83-43.45,75.73-13.65,148.26,22.82,218.41,58.08,35.32,17.76,71.84,36.12,108.19,47.74,26.07,8.33,50.19,12.47,73.05,12.47,9.47,0,18.73-.71,27.82-2.12,36.84-5.74,72.02-19.27,101.77-31.94.05-1.3.09-2.59.13-3.89-29.84,12.73-65.21,26.41-102.2,32.18Z"/>
  <path class="cls-1" d="m1438.11,651.42c-1.9.58-3.79,1.15-5.7,1.7-52.9,22.99-121.52,44.23-195.02,20.49-37.38-12.07-74.15-30.82-109.72-48.93-34.61-17.63-70.39-35.86-106.44-47.76-40.46-13.35-77.07-17.16-111.95-11.65-46.91,7.41-93.06,26.25-137.68,44.47-55.68,22.72-113.24,46.23-172.51,47.52-60.33,1.31-115.48-31.28-168.81-62.81-44.62-26.39-90.76-53.66-140.04-61.34-63.57-9.9-128.03,12.49-190.38,34.13-3.17,1.1-6.33,2.19-9.48,3.28-11.35,3.93-22.9,8.05-34.08,12.04-18.09,6.45-36.35,12.94-54.76,18.98.57,1.16.67,2.5.04,3.75,18.61-6.1,37.08-12.66,55.36-19.18,11.18-3.99,22.73-8.11,34.06-12.03,3.15-1.09,6.3-2.18,9.48-3.28,62.12-21.57,126.36-43.87,189.47-34.04,48.9,7.62,94.86,34.8,139.3,61.07,52.52,31.05,106.79,63.14,166.27,63.14,1.19,0,2.39,0,3.59-.04,59.61-1.3,117.36-24.87,173.2-47.67,44.52-18.17,90.55-36.96,137.24-44.34,77.08-12.17,148.31,24.12,217.19,59.22,35.64,18.16,72.49,36.93,110.02,49.06,21.94,7.09,44.15,10.61,67.18,10.61,11.7,0,23.62-.91,35.84-2.73,30.04-4.47,61.38-14.24,98.4-30.67-.04-1-.07-1.99-.09-2.99Z"/>
  <path class="cls-1" d="m1437.72,621.97c-27.43,11.68-62.74,25.28-99.01,31.09-30.79,4.94-62.37,1.79-99.37-9.88-36.37-11.47-72.78-29.14-107.98-46.23-71.68-34.79-145.8-70.77-224-56.8-48.18,8.6-95.88,28.15-142.01,47.03-59.19,24.25-120.4,49.31-183.02,51.38-58.48,1.91-111.97-32.8-163.71-66.37-41.6-27-84.6-54.92-130.25-64.03-59.16-11.81-123.43,10.23-180.13,29.68-6.13,2.11-12.22,4.19-18.23,6.22-11.13,3.75-22.47,7.68-33.44,11.48-18.01,6.24-36.21,12.5-54.54,18.36,0,1.28-.15,2.59-.35,3.88,18.66-5.95,37.18-12.33,55.51-18.68,10.96-3.8,22.3-7.73,33.43-11.48,6.02-2.03,12.11-4.12,18.25-6.22,59.23-20.31,120.47-41.31,179.14-29.61,45.26,9.05,88.09,36.84,129.51,63.72,52.01,33.76,105.79,68.63,164.88,66.71,62.96-2.08,124.34-27.22,183.69-51.53,46.03-18.85,93.63-38.35,141.61-46.92,77.59-13.86,151.41,21.97,222.81,56.62,35.27,17.13,71.75,34.83,108.26,46.35,25.99,8.2,49.33,12.22,71.61,12.22,9.7,0,19.2-.76,28.62-2.28,36.18-5.79,71.34-19.25,98.78-30.92-.02-1.27-.04-2.54-.06-3.81Z"/>
  <path class="cls-1" d="m1438.67,590.69c-37.2,14.11-66.56,22.43-94.42,26.77-29.9,4.67-60.66,1.83-99.74-9.21-35.78-10.1-72.27-25.7-107.55-40.77-74.89-31.99-152.32-65.07-230.97-50.17-49.01,9.28-97.73,28.49-144.85,47.06-61.08,24.07-124.26,48.97-188.56,52.41-48.12,2.58-97-28.04-140.12-55.04-6.04-3.79-12.18-7.69-18.12-11.47-41.04-26.09-83.47-53.07-128.96-63.37-56.42-12.77-118.83,7.65-173.89,25.68-7.89,2.59-15.36,5.03-22.86,7.4-10.76,3.41-21.73,6.97-32.32,10.41-18.08,5.87-36.34,11.8-54.74,17.33.02,1.29-.15,2.59-.43,3.87,18.74-5.62,37.34-11.64,55.76-17.62,10.59-3.44,21.55-7,32.31-10.4,7.51-2.39,14.98-4.83,22.88-7.41,54.83-17.95,116.96-38.29,172.88-25.63,45.14,10.22,87.42,37.1,128.3,63.09,5.95,3.77,12.09,7.68,18.14,11.47,43.39,27.17,92.55,57.96,141.29,55.36,64.62-3.46,127.94-28.41,189.17-52.55,47.04-18.54,95.67-37.71,144.5-46.96,78.08-14.79,155.24,18.17,229.86,50.05,35.34,15.1,71.89,30.72,107.8,40.85,27.28,7.71,50.55,11.44,72.31,11.44,9.63,0,18.97-.73,28.21-2.16,27.91-4.35,57.28-12.66,94.43-26.73-.13-1.23-.23-2.46-.29-3.7Z"/>
  <path class="cls-1" d="m1436.27,558.48c-31.75,9.8-58.62,16.02-83.61,19.4-36.94,5-71.53-1.14-100.5-7.8-39.55-9.1-79.24-22.07-117.64-34.62-20.25-6.62-41.2-13.47-61.88-19.67-53.12-15.92-109.82-30.56-167.7-19.88-49.25,9.08-98.43,27.14-145.99,44.59-62.31,22.86-126.73,46.5-191.91,50.2-45.66,2.56-93.4-25.38-135.53-50.03l-3.7-2.16c-6-3.51-12.11-7.14-18.02-10.64-41-24.32-83.4-49.48-128.3-59.66-55.21-12.52-116.49,5.94-170.55,22.22-8.44,2.54-16.41,4.95-24.42,7.26-10.35,2.99-20.87,6.11-31.05,9.12-17.79,5.27-35.75,10.58-53.84,15.55-.16,1.35-.4,2.64-.67,3.92,18.5-5.07,36.86-10.5,55.05-15.88,10.18-3.01,20.69-6.12,31.03-9.11,8.02-2.32,16-4.72,24.44-7.26,53.84-16.22,114.87-34.61,169.59-22.19,44.6,10.11,86.85,35.17,127.7,59.41,5.91,3.5,12.02,7.13,18.03,10.64l3.7,2.16c40.53,23.73,86.22,50.48,130.57,50.48,2.03,0,4.05-.05,6.06-.17,65.47-3.71,130.03-27.4,192.47-50.31,47.49-17.42,96.59-35.44,145.67-44.49,57.47-10.6,113.92,3.98,166.81,19.83,20.66,6.19,41.6,13.04,61.85,19.65,38.43,12.57,78.17,25.56,117.8,34.67,27.43,6.31,63.72,12.9,101.19,7.84,25.03-3.38,51.94-9.61,83.71-19.4-.15-1.22-.27-2.44-.35-3.65Z"/>
  <path class="cls-1" d="m1363.19,535.34c-36.35,3.69-71.75-.87-101.58-5.83-40.89-6.78-82.2-16.39-122.15-25.69-21.07-4.91-42.85-9.97-64.33-14.57-49.53-10.61-111.19-23.8-170.98-13.74-49.24,8.28-98.61,24.49-146.35,40.18-62.73,20.6-127.6,41.92-192.84,45.41-44.93,2.41-92.49-22.16-134.44-43.84l-5.83-3.01c-6.03-3.11-12.05-6.26-18.08-9.4-41.65-21.76-84.73-44.26-129.64-53.5-55.05-11.33-113.07,4.11-169.17,19.05-7.89,2.1-16.05,4.27-23.92,6.28-9.88,2.52-19.91,5.15-29.63,7.69-17.62,4.61-35.41,9.25-53.31,13.6-.04,1.27.02,2.5.02,3.73,18.06-4.38,36-9.07,53.77-13.71,9.71-2.54,19.75-5.16,29.62-7.69,7.88-2.02,16.04-4.19,23.94-6.29,55.89-14.87,113.69-30.26,168.3-19.02,44.64,9.19,87.59,31.62,129.11,53.31,6.04,3.16,12.07,6.3,18.1,9.41l5.83,3.01c40.23,20.8,85.6,44.24,129.15,44.24,2.1,0,4.2-.05,6.29-.18,65.5-3.5,130.49-24.85,193.34-45.5,47.67-15.66,96.96-31.85,146.06-40.11,55.06-9.27,107.47.28,170.28,13.72,21.45,4.6,43.23,9.66,64.28,14.56,39.98,9.3,81.33,18.92,122.28,25.71,29.95,4.97,65.5,9.55,102.07,5.84,22.64-2.29,46.59-6.34,74.05-12.54.13-1.31.37-2.59.64-3.86-27.83,6.32-52.02,10.43-74.87,12.74Z"/>
  <path class="cls-1" d="m1437.13,484.83c-57.88,6.98-112.7,7.79-166.75,2.47-41.85-4.12-84.31-9.95-125.37-15.61-22.8-3.13-46.37-6.38-69.57-9.28l-2.44-.3c-56.49-7.09-114.91-14.42-172.49-5.86-49.37,7.34-98.88,20.85-146.76,33.93-7.59,2.07-15.19,4.15-22.78,6.19-5.89,1.59-11.8,3.21-17.74,4.84-49.89,13.66-101.48,27.78-152.11,28.06-45.24.24-90.88-19.51-134.99-38.62-2.55-1.11-5.08-2.2-7.61-3.29-4.76-2.05-9.53-4.13-14.3-6.2-43.39-18.87-88.25-38.39-134.28-45.8-55.76-8.98-113.74,4.16-169.81,16.88-7.55,1.72-15.35,3.49-22.94,5.15-8.16,1.79-16.32,3.61-24.48,5.42-17.12,3.81-34.4,7.63-51.79,11.22-.04.87-.13,1.72-.23,2.58.04.39.06.78.07,1.17,17.58-3.63,35.05-7.51,52.36-11.36,8.16-1.82,16.32-3.63,24.47-5.42,7.59-1.66,15.4-3.43,22.96-5.15,55.9-12.68,113.7-25.78,169.1-16.86,45.77,7.37,90.52,26.82,133.8,45.65,4.77,2.07,9.53,4.15,14.3,6.2,2.52,1.08,5.05,2.18,7.6,3.28,44.03,19.07,89.54,38.79,134.91,38.79.29,0,.58,0,.86.02,50.88-.28,102.59-14.45,152.6-28.14,5.93-1.62,11.84-3.25,17.73-4.83,7.59-2.05,15.19-4.13,22.79-6.2,47.83-13.05,97.28-26.56,146.53-33.88,57.33-8.52,115.62-1.2,171.99,5.87l2.44.3c23.19,2.91,46.76,6.15,69.54,9.28,41.08,5.65,83.57,11.49,125.45,15.61,54.2,5.34,109.17,4.52,167.2-2.48-.13-1.21-.22-2.43-.27-3.64Z"/>
  <path class="cls-1" d="m1437.97,443.57c-51.86,1.66-104.49,2.67-156.52,1.12-43.53-1.29-87.76-3.37-130.55-5.38-23.74-1.11-48.28-2.26-72.43-3.27-7.15-.29-14.31-.61-21.47-.94-51.47-2.3-104.69-4.68-156.81,1.46-46.82,5.51-94.22,16.68-140.06,27.48-64.14,15.11-130.46,30.74-196.26,31.13-56.2.28-111.85-19.35-165.67-38.38-43.39-15.34-88.25-31.2-133.26-36.58-57.74-6.89-116.95,3.84-174.21,14.22-5.55,1-11.08,2.01-16.6,2.99-7.63,1.36-15.25,2.74-22.88,4.12-16.52,2.99-33.2,6-49.97,8.82.1,1.24.08,2.48-.09,3.71,16.92-2.84,33.74-5.87,50.4-8.89,7.63-1.38,15.24-2.76,22.87-4.12,5.52-.98,11.05-1.98,16.61-2.99,57.12-10.35,116.19-21.05,173.65-14.2,44.8,5.35,89.56,21.17,132.84,36.48,53.54,18.93,108.87,38.49,164.93,38.49.47,0,.94,0,1.4,0,66.01-.39,132.44-16.05,196.67-31.18,45.79-10.79,93.13-21.94,139.85-27.45,51.97-6.12,105.11-3.74,156.51-1.45,7.16.32,14.32.64,21.47.94,24.15,1,48.7,2.16,72.43,3.27,42.79,2.01,87.04,4.08,130.58,5.38,52.15,1.55,104.86.54,156.81-1.13-.09-1.22-.16-2.44-.23-3.67Z"/>
  <path class="cls-1" d="m1292.36,402.29c-45.23,1.53-91.21,3.16-135.68,4.75-25.09.9-50.16,1.79-75.24,2.67-18.5.64-37.33,1.08-55.55,1.5-41.3.95-84,1.95-125.87,5.47-46.67,3.93-93.96,12.39-139.7,20.59-62.85,11.26-127.82,22.89-192.11,22.89h-.28c-56.57-.03-113.11-14.33-167.8-28.16-45.69-11.55-92.93-23.5-140.06-27.12-72.92-5.6-146.74,5.08-218.13,15.41-13.39,1.94-26.89,3.87-40.46,5.72.08,1.23.02,2.5-.1,3.7,13.69-1.86,27.32-3.81,40.83-5.76,71.29-10.32,145.01-20.98,217.72-15.4,46.97,3.6,94.13,15.53,139.74,27.06,54.8,13.86,111.46,28.19,168.26,28.22h.28c64.45,0,129.51-11.65,192.45-22.93,45.7-8.18,92.94-16.64,139.53-20.56,41.81-3.51,84.48-4.5,125.75-5.46,18.22-.42,37.06-.85,55.56-1.5,25.09-.88,50.16-1.78,75.24-2.67,44.47-1.59,90.45-3.22,135.68-4.75,48.63-1.64,97.61-.17,146.09,2.4,0-1.22,0-2.44.02-3.67-48.5-2.58-97.5-4.04-146.17-2.4Z"/>
  <path class="cls-1" d="m1439.12,360.3c-9.48-1.28-18.79-2.34-27.96-3.16-33-2.95-66.46.04-98.8,2.92l-7.86.7c-44.42,3.91-89.52,8.46-133.13,12.86-87.88,8.86-178.76,18.04-268.42,22.39-48.51,2.36-97.66,8.26-145.19,13.96-59.18,7.1-120.38,14.45-180.81,15.01-58.27.51-117.02-9.09-173.82-18.4-47.48-7.79-96.58-15.83-145.23-17.93-69.64-3-140.16,3.72-208.36,10.22-15.62,1.49-31.39,2.97-47.24,4.36.2,1.23.28,2.41.26,3.65,15.82-1.38,31.56-2.86,47.15-4.35,68.14-6.49,138.6-13.2,208.11-10.21,48.54,2.08,97.58,10.13,145,17.9,55.34,9.07,112.52,18.45,169.4,18.45,1.58,0,3.15,0,4.73-.02,60.54-.57,121.78-7.92,181.02-15.03,47.5-5.71,96.62-11.6,145.05-13.95,89.7-4.36,180.61-13.53,268.51-22.4,43.61-4.4,88.71-8.95,133.11-12.86l7.87-.7c32.27-2.88,65.64-5.85,98.48-2.92,9.35.84,18.84,1.93,28.52,3.25-.13-1.25-.26-2.49-.4-3.74Z"/>
  <path class="cls-1" d="m1437.65,318.36c-5.64-.99-11.25-1.84-16.83-2.54-34.26-4.3-68.97.28-102.54,4.7l-5.07.67c-45.16,5.92-90.94,13.54-135.22,20.92-89.9,14.97-182.85,30.45-275.06,32.42-49.1,1.05-98.92,4.53-147.12,7.9-57.14,3.99-116.22,8.12-174.43,8.21-56.92.1-114.64-5.07-170.45-10.06-51.3-4.59-104.35-9.34-156.7-9.99-63.17-.79-127.32,2.62-189.35,5.93-21.04,1.12-42.31,2.23-63.7,3.21.02,1.22-.02,2.44-.09,3.66,21.45-.97,42.79-2.09,63.89-3.21,62-3.29,126.11-6.71,189.22-5.92,52.27.66,105.29,5.4,156.56,9.99,55.36,4.95,112.58,10.07,169.11,10.07.5,0,1.01,0,1.5,0,58.27-.09,117.38-4.23,174.55-8.22,48.17-3.37,97.98-6.84,147.03-7.89,92.34-1.97,185.36-17.47,275.32-32.45,44.26-7.37,90.03-14.99,135.16-20.91l5.08-.67c33.45-4.41,68.04-8.97,102.06-4.7,5.93.75,11.89,1.66,17.88,2.72-.36-1.23-.63-2.51-.82-3.84Z"/>
  <path class="cls-1" d="m1437.56,279.52c-3.57-.66-7.12-1.25-10.65-1.75-35.65-4.98-71.85.9-106.86,6.6l-2.31.38c-45.77,7.44-92.09,17.29-136.88,26.83-91.58,19.48-186.27,39.64-280.78,40.03-52.41.21-105.67,1.68-157.18,3.09-53.16,1.46-108.13,2.97-162.21,3.11-54,.14-108.89-1.89-161.97-3.84-55.55-2.05-112.98-4.16-169.51-3.81-49.3.31-99.45,1.44-147.94,2.53-33.03.75-66.54,1.48-100.21,1.99.06,1.21.07,2.43.06,3.67,33.66-.5,67.17-1.24,100.18-1.99,48.49-1.09,98.63-2.23,147.91-2.53,56.48-.35,113.9,1.76,169.43,3.81,51.39,1.89,104.47,3.84,156.82,3.84,1.74,0,3.49,0,5.24,0,54.1-.14,109.08-1.65,162.25-3.11,51.5-1.41,104.76-2.88,157.15-3.09,94.69-.39,189.49-20.56,281.16-40.07,44.77-9.53,91.06-19.39,136.79-26.82l2.31-.38c34.87-5.67,70.94-11.53,106.3-6.59,3.77.53,7.57,1.16,11.38,1.88-.24-1.25-.45-2.48-.48-3.78Z"/>
  <path class="cls-1" d="m1321.57,251.57c-47.43,8.39-95.24,19.84-141.47,30.93-90.7,21.74-184.46,44.21-278.73,44.21h-1.24c-62.21-.13-125.46.11-186.63.34-42.88.17-87.21.33-130.81.37-63.85.05-128.77.2-191.57.34-127.74.28-258.67.56-389.26.14.14,1.19.08,2.42-.06,3.66,47.45.15,94.94.23,142.33.23,83.01,0,165.67-.18,247.01-.36,62.79-.14,127.72-.28,191.57-.34,43.6-.04,87.93-.2,130.81-.37,61.16-.23,124.41-.48,186.61-.34h1.24c94.49,0,188.37-22.49,279.17-44.26,46.21-11.07,93.99-22.53,141.36-30.91,37.56-6.65,76.86-11.07,116.71-4.67,0-1.23.01-2.47.02-3.7-40-6.37-79.41-1.93-117.06,4.73Z"/>
  <path class="cls-1" d="m1439.3,218.86c-7.99-1.37-16.17-2.37-24.6-2.93-26.92-1.8-56.75.46-93.85,7.09-50.08,8.95-100.54,22.03-149.34,34.67-26.97,6.99-54.86,14.22-82.35,20.66-62.85,14.73-124.45,21.95-188.31,22.09-45.42.1-91.6-.2-136.26-.49-58.91-.38-119.83-.77-179.75-.27-34.8.28-70.19,1.21-104.41,2.11-76.51,2-155.63,4.07-233.37-.81-81.94-5.14-165.08-4.02-245.72-2.73.16,1.19.16,2.42.07,3.67,80.59-1.3,163.68-2.41,245.53,2.72,35.49,2.23,71.26,3.01,106.94,3.01,42.54,0,84.96-1.11,126.6-2.19,34.22-.89,69.6-1.82,104.38-2.11,59.91-.5,120.82-.11,179.72.27,44.66.29,90.85.59,136.28.49,64.01-.13,125.74-7.38,188.74-22.14,27.51-6.45,55.42-13.68,82.4-20.67,48.76-12.63,99.19-25.7,149.2-34.64,36.44-6.52,76.99-11.12,118.14-4.01-.01-1.27-.01-2.53-.03-3.8Z"/>
  <path class="cls-1" d="m1438.86,193.32c-8.29-1.6-16.77-2.77-25.48-3.5-27.83-2.31-57.62-.3-93.77,6.35-49.22,9.05-98.72,22.81-146.58,36.12-25.18,7-51.21,14.24-76.88,20.7-62.32,15.69-123.42,23.34-186.79,23.38-45.9.04-92.58-1.02-137.71-2.05-56.3-1.28-114.51-2.6-171.78-1.82-37.06.5-74.82,2.88-111.34,5.17-78.68,4.95-160.04,10.05-239.51-3.15-63.28-10.5-122.22-14.41-180.21-11.93-22.14.95-44.6,2.34-66.48,3.73.65,1.09.93,2.4.77,3.62,21.66-1.38,43.88-2.75,65.79-3.69,57.86-2.48,116.68,1.42,179.83,11.91,37.76,6.28,75.9,8.42,113.99,8.42,42.29,0,84.5-2.65,125.96-5.24,36.5-2.29,74.24-4.67,111.25-5.17,57.24-.78,115.44.54,171.72,1.82,44.48,1.01,90.47,2.05,135.75,2.05h2.01c63.52-.05,124.78-7.71,187.25-23.44,25.7-6.47,51.74-13.72,76.93-20.72,47.82-13.29,97.27-27.04,146.41-36.08,34.22-6.3,75.61-11.1,118.96-2.65-.02-1.28-.04-2.57-.06-3.85Z"/>
  <path class="cls-1" d="m1409.24,164.38c-28.55-2.68-59.36-.6-94.21,6.32-47.03,9.36-94.19,23.79-139.79,37.75-24,7.35-48.81,14.94-73.3,21.71-60.78,16.79-120.47,24.74-182.43,24.29-44.8-.31-90.33-2.41-134.36-4.45-54.7-2.53-111.26-5.15-166.95-4.36-38.81.55-78.59,4.19-117.06,7.71-83.12,7.61-169.09,15.49-251.95-7.01-4.72-1.28-9.42-2.6-14.09-3.9-24.29-6.78-47.24-13.18-71.92-15.31-27.05-2.34-55.72-2.12-92.97.7-22.67,1.71-45.64,4.17-67.99,6.61-.04,1.37-.54,2.79-1.52,3.85,22.88-2.5,46.43-5.03,69.66-6.79,37.15-2.82,65.73-3.03,92.67-.71,24.51,2.11,47.36,8.49,71.57,15.25,4.68,1.3,9.38,2.61,14.11,3.9,41.04,11.15,82.79,14.87,124.57,14.87s85.85-3.94,128.02-7.8c38.44-3.52,78.18-7.16,116.92-7.71,55.64-.79,112.17,1.83,166.84,4.35,44.05,2.04,89.6,4.14,134.43,4.46,62.14.45,122-7.53,182.95-24.36,24.51-6.76,49.34-14.37,73.35-21.72,45.56-13.95,92.67-28.38,139.6-37.71,46.55-9.26,86.47-9.97,123.27-1.75.07-1.19.16-2.36.29-3.53-9.68-2.16-19.56-3.73-29.7-4.68Z"/>
  <path class="cls-1" d="m1309.56,146.02c-44.34,9.79-88.65,25.03-131.48,39.77-22.55,7.76-45.87,15.78-68.9,22.91-59.11,18.29-116.71,26.62-176.08,25.45-43.39-.85-87.44-4.22-130.04-7.49-52.65-4.03-107.09-8.19-160.78-7.65-41.11.42-83.58,5.21-124.66,9.84-88.92,10.04-180.87,20.4-267.86-11.88-5.54-2.05-11.08-4.2-16.43-6.28-23-8.92-44.73-17.34-69.01-20.07-26.7-3.01-55.3-2.49-92.73,1.7-23.35,2.6-46.98,6.28-69.92,9.89-.09,1.26-.22,2.52-.41,3.75,23.15-3.64,47-7.37,70.55-10,37.28-4.16,65.75-4.69,92.31-1.7,24.03,2.72,45.64,11.09,68.52,19.95,5.36,2.07,10.9,4.22,16.46,6.28,44.54,16.53,90.3,21.95,136.29,21.95s88.72-5.01,132.43-9.97c41.03-4.62,83.45-9.41,124.47-9.83,53.6-.54,108.01,3.62,160.62,7.65,42.63,3.27,86.71,6.64,130.15,7.49,59.57,1.17,117.36-7.18,176.68-25.53,23.05-7.14,46.39-15.16,68.95-22.93,42.79-14.72,87.04-29.94,131.27-39.7,46.4-10.24,88.09-10.51,127.66-.56.04-1.23.13-2.46.25-3.67-39.79-9.97-81.7-9.68-128.31.6Z"/>
  <path class="cls-1" d="m1398.16,114.96c-30.79-3.52-61.75-1.26-94.67,6.94-41.37,10.29-82.46,26.43-122.19,42.04-20.92,8.21-42.55,16.72-63.95,24.25-56.93,20.05-112.02,28.81-168.41,26.77-41.74-1.51-84.07-6.31-124.99-10.95-50.32-5.71-102.36-11.58-153.81-11.46-41.88.13-84.33,5.11-125.39,9.93-23.2,2.73-47.19,5.54-70.78,7.44-74.69,6.03-153.46,9.21-223.38-23.1-6.55-3.03-12.99-6.22-19.23-9.3-21.63-10.71-42.07-20.83-65.92-24.11-33.78-4.64-67.17-.88-92.49,2.92-24.12,3.62-48.49,8.65-72.11,13.56-.02,1.23-.01,2.47.02,3.71,23.7-4.92,48.18-9.99,72.36-13.62,25.19-3.77,58.41-7.52,91.95-2.91,23.54,3.24,43.83,13.28,65.31,23.92,6.25,3.09,12.7,6.29,19.28,9.33,70.35,32.5,149.4,29.33,224.34,23.28,23.63-1.91,47.64-4.73,70.86-7.45,41.01-4.82,83.41-9.79,125.18-9.92,51.34-.13,103.33,5.73,153.59,11.44,40.95,4.64,83.31,9.45,125.13,10.96,5.34.2,10.66.29,15.98.29,51.1,0,101.36-8.94,153.14-27.17,21.43-7.54,43.08-16.05,64.02-24.28,39.67-15.59,80.69-31.7,121.94-41.96,45.6-11.34,89.16-11.17,131.9.6.1-1.26.26-2.5.49-3.71-12.64-3.5-25.32-5.98-38.18-7.45Z"/>
  <path class="cls-1" d="m1391.9,90.52c-31.83-3.98-62.83-1.52-94.79,7.51-38.25,10.82-75.94,27.91-112.39,44.44-19.2,8.7-39.04,17.71-58.72,25.67-54.86,22.22-105.72,31.16-160.06,28.16-40.01-2.21-80.44-8.53-119.53-14.64-47.85-7.48-97.32-15.22-146.48-15.49-44.45-.24-89.53,5.53-133.12,11.13-24.75,3.17-50.35,6.46-75.51,8.6-81.12,6.88-166.46,10.26-239.76-29.62-7.5-4.08-14.75-8.46-21.77-12.69-20.42-12.32-39.7-23.95-63.23-27.75-33.33-5.38-66.8-.56-92.23,4.25-24.34,4.59-48.89,10.92-72.67,17.07.24,1.18.47,2.36.69,3.55,23.68-6.12,48.11-12.42,72.32-16.99,25.28-4.78,58.54-9.58,91.59-4.24,23.15,3.74,42.26,15.27,62.5,27.48,7.04,4.24,14.32,8.63,21.86,12.73,34,18.5,72.96,29.24,119.1,32.82,41.9,3.25,84.82.18,121.76-2.95,25.19-2.14,50.81-5.42,75.58-8.61,43.54-5.59,88.55-11.35,132.88-11.11,49.02.28,98.42,8.01,146.2,15.48,39.14,6.12,79.62,12.45,119.72,14.66,6.54.36,13.05.54,19.56.54,47.12,0,93.55-9.5,141.36-28.83,19.71-7.98,39.58-16.99,58.79-25.71,36.38-16.49,74-33.56,112.1-44.34,46.7-13.21,93.34-12.16,141.44,3.3-.02-1.28-.02-2.57,0-3.85-15.89-5.11-31.54-8.6-47.17-10.56Z"/>
  <path class="cls-1" d="m1437.66,78.73c-52.36-18.01-99.37-19.56-145.38-5.12-35.74,11.22-70.52,29.55-104.15,47.28-17.86,9.41-36.33,19.15-54.7,27.7-51.69,24.04-100.65,33.16-154.08,28.73-37.11-3.07-74.46-10.71-110.57-18.08-46.18-9.43-93.93-19.19-141.74-19.54-46.39-.32-93.42,6.15-138.91,12.42-27.16,3.74-55.25,7.61-82.85,9.98-84.88,7.28-174.12,10.6-250.07-34.69-8.27-4.93-16.21-11.23-23.88-17.32-9.43-7.48-19.19-15.22-29.69-20.54-10.66-5.39-22.47-9.27-35.08-11.53-31.72-5.66-63.41-.3-87.48,4.99-26.02,5.73-52.2,13.83-77.51,21.66-.14.04-.29.09-.43.13-.15.7-.31,1.41-.5,2.11-.19.68-.41,1.34-.63,2,.71-.22,1.42-.44,2.13-.66,25.28-7.82,51.41-15.91,77.35-21.61,23.9-5.26,55.35-10.58,86.75-4.97,12.43,2.22,24.04,6.04,34.52,11.35,10.29,5.22,19.95,12.88,29.29,20.28,7.74,6.14,15.75,12.49,24.15,17.5,76.47,45.59,166.05,42.27,251.26,34.97,27.65-2.37,55.75-6.24,82.94-9.99,45.42-6.27,92.39-12.74,138.64-12.4,47.62.35,95.29,10.09,141.38,19.5,36.17,7.4,73.57,15.04,110.8,18.12,8.71.72,17.31,1.08,25.8,1.08,44,0,85.66-9.73,129.24-30.02,18.43-8.56,36.92-18.31,54.81-27.74,33.55-17.68,68.24-35.97,103.8-47.14,45.97-14.43,92.97-12.74,145.44,5.54-.22-1.33-.43-2.67-.63-4.01Z"/>
  <path class="cls-1" d="m1380.84,41.29c-33.59-5.19-64.59-2.51-94.77,8.19-32.87,11.66-64.35,30.93-94.78,49.57-16.18,9.9-32.91,20.15-49.62,29.1-48.15,25.81-94.66,35.33-146.37,29.94-35.6-3.71-71.18-12.77-105.58-21.53-43.76-11.15-89.01-22.68-134.79-23.31-48.8-.67-98.32,6.67-146.22,13.77-28.66,4.25-58.3,8.64-87.4,11.26-90.85,8.16-186.15,11.73-265.21-40.71-9.85-6.54-19.04-14.1-27.91-21.42-19.02-15.68-36.98-30.49-60.5-35.34-31.16-6.42-62.99-.11-87.23,6.1-26.13,6.7-52.34,16.08-77.69,25.16-.13.05-.26.09-.4.14.15,1.23.25,2.45.3,3.67.25-.09.5-.18.74-.27,25.3-9.06,51.47-18.43,77.51-25.11,24.04-6.16,55.59-12.42,86.38-6.08,23.01,4.74,40.77,19.38,59.56,34.87,8.93,7.36,18.16,14.96,28.12,21.58,54.28,36.01,116,45.81,178.69,45.81,29.28,0,58.78-2.14,87.81-4.74,29.15-2.62,58.82-7.02,87.51-11.28,47.82-7.09,97.27-14.42,145.92-13.75,45.56.62,90.69,12.13,134.35,23.25,34.47,8.79,70.12,17.87,105.86,21.59,9.33.97,18.49,1.46,27.53,1.46,41.42,0,80.13-10.28,119.96-31.61,16.77-8.99,33.53-19.25,49.73-29.16,30.34-18.58,61.72-37.79,94.38-49.37,53.93-19.14,105.85-9.35,149.74,6.84.03-.43.05-.87.09-1.3.07-.78.15-1.56.24-2.34-19.93-7.34-38.22-12.22-55.94-14.96Z"/>
  <path class="cls-1" d="m1438.4,34.25c-23.3-9.16-43.42-14.96-62.81-18.2-34.48-5.75-65.59-2.89-95.1,8.75-30.41,12-58.91,32.12-86.48,51.58-14.65,10.35-29.81,21.05-45.05,30.37-44.71,27.38-89.19,37.23-140,31.01-34.33-4.2-68.32-14.57-101.21-24.59-41.61-12.68-84.64-25.79-128.75-26.56-50.78-.89-102.37,7.39-152.25,15.4-30.03,4.83-61.07,9.81-91.54,12.71-96.23,9.19-197.01,13.19-278.52-46.26-10.29-7.5-19.7-16.41-28.81-25.02-18.31-17.31-35.6-33.66-59.06-39.17-30.76-7.24-62.65-.06-87,7C55.6,18.89,29.35,29.5,3.96,39.77c-.81.33-1.63.66-2.45.99-.08,1.33-.2,2.66-.37,3.97,1.18-.48,2.37-.95,3.54-1.43,25.34-10.25,51.55-20.84,77.68-28.42,24.13-6.99,55.71-14.1,86.04-6.97,22.9,5.39,39.96,21.51,58.02,38.6,9.16,8.67,18.64,17.63,29.06,25.23,82.12,59.89,183.31,55.9,279.91,46.67,30.52-2.92,61.59-7.91,91.65-12.73,49.8-8,101.3-16.27,151.92-15.39,43.85.76,86.75,13.83,128.23,26.48,32.96,10.05,67.04,20.43,101.53,24.65,9.84,1.2,19.43,1.81,28.84,1.81,39.66,0,75.97-10.78,112.43-33.1,15.31-9.37,30.5-20.09,45.18-30.46,27.46-19.38,55.85-39.42,86.01-51.32,54.08-21.34,108.47-9.47,157.21,9.73,0-1.27,0-2.54,0-3.81Z"/>
  <path class="cls-1" d="m19.48,1.59c-4.77,2.11-9.53,4.23-14.25,6.34-1.03.46-2.06.92-3.09,1.38-.27,1.41-.56,2.82-.85,4.23,1.58-.7,3.16-1.41,4.73-2.11,6.82-3.05,13.71-6.12,20.64-9.14-2.41-.14-4.81-.37-7.19-.69Z"/>
  <path class="cls-1" d="m1274.45,0c-1.06.46-2.12.94-3.18,1.43-26.68,12.34-51.27,32.04-75.05,51.07-13.72,10.99-27.9,22.35-42.32,32.16-40.22,27.37-83.52,37.67-132.38,31.49-36.81-4.65-72.98-18.61-104.89-30.91-43.66-16.84-83.56-25.18-121.96-25.5-51.5-.45-103.9,8.73-154.56,17.61-32.18,5.62-65.45,11.45-98.05,14.72-100.19,10.05-204.9,14.24-287.14-53.07-10.19-8.34-19.27-18.14-28.05-27.6-3.29-3.55-6.54-7.06-9.82-10.46-1.55-.06-3.11-.13-4.66-.22,4.32,4.35,8.57,8.93,12.88,13.58,8.85,9.54,17.99,19.4,28.33,27.86,38.11,31.19,84.2,49.61,140.89,56.32,50.93,6.03,102.98,1.73,147.77-2.76,32.67-3.28,65.98-9.11,98.19-14.75,50.58-8.85,102.86-18.03,154.23-17.58,38.17.31,77.84,8.61,121.28,25.37,32.01,12.35,68.3,26.34,105.34,31.02,9.21,1.16,18.21,1.74,27.05,1.74,38.51,0,73.64-11.1,106.7-33.55,14.49-9.86,28.72-21.25,42.47-32.27,23.67-18.95,48.14-38.55,74.57-50.78,3.69-1.71,7.38-3.24,11.07-4.61-2.9-.14-5.8-.24-8.7-.31Z"/>
  <path class="cls-1" d="m1415.17,2.1c-1.4-.05-2.8-.12-4.19-.2-.66.35-1.43.57-2.35.57-1.19,0-2.38-.01-3.56-.02,11.2,3.54,22.3,7.7,33.29,12.22-.02-1.26.02-2.51.13-3.77-7.38-3.02-15.21-6-23.31-8.8Z"/>
  <path class="cls-1" d="m1228.49.68c-10.6,8.39-20.87,17.44-30.98,26.36-12.8,11.28-26.03,22.96-39.6,32.98-38.47,28.41-80.01,38.59-130.74,32.02-33.96-4.39-64.89-16.87-101.8-32.73-41.81-17.96-81.06-26.7-119.98-26.71h-.11c-33.12,0-66.65,6.1-99.08,12.01-5.41.99-10.81,1.97-16.2,2.93l-6.08,1.07c-44.33,7.85-90.17,15.97-135.46,21.05-99.05,11.08-211.62,16.72-293.94-57.15-3.94-3.53-7.69-7.33-11.3-11.28-1.4.01-2.79.02-4.19.03,4.46,5.02,9.11,9.89,14.08,14.35,38.14,34.23,85.15,54.34,143.72,61.46,52.36,6.37,105.83,1.4,151.84-3.74,45.35-5.07,91.21-13.2,135.58-21.06l6.08-1.07c5.39-.95,10.8-1.94,16.21-2.93,32.35-5.89,65.79-11.98,98.74-11.98h.11c38.66.02,77.66,8.71,119.22,26.56,37.06,15.93,68.12,28.45,102.32,32.88,9.88,1.28,19.37,1.92,28.55,1.92,13.7,0,26.72-1.43,39.33-4.28,22.96-5.22,44-15.05,64.32-30.05,13.66-10.08,26.94-21.8,39.78-33.12,11.39-10.04,22.97-20.26,34.99-29.48-1.81-.06-3.62-.1-5.4,0Z"/>
  <path class="cls-1" d="m1196.06,2.32c-11.6,10.67-23.55,21.56-35.85,31-37.58,28.84-79.8,38.64-132.84,30.82-34.43-5.07-66.24-18.38-99.92-32.49l-2.92-1.22c-39.36-16.46-76.63-24.63-113.92-24.97-32.36-.29-65.15,5.75-96.84,11.61-4.96.92-9.9,1.83-14.84,2.72l-9.64,1.73c-44.92,8.1-91.38,16.48-137.28,21.7-93.17,10.6-197.84,16.39-278.19-42.23-1.86-.02-3.73-.02-5.6-.02,35.16,27.06,77.6,43.41,129.03,49.78,53.37,6.61,107.97,1.46,154.96-3.89,45.96-5.23,92.45-13.6,137.4-21.71l9.64-1.73c4.94-.89,9.89-1.8,14.85-2.72,31.61-5.83,64.27-11.87,96.49-11.57,37.04.34,74.06,8.46,113.19,24.82l2.92,1.22c33.8,14.15,65.73,27.5,100.39,32.61,11.77,1.73,23,2.61,33.79,2.61,38.33,0,70.87-11.06,100.59-33.87,13.26-10.17,26.1-22,38.51-33.43.21-.2.43-.39.64-.59-1.5-.01-3.01-.11-4.56-.19Z"/>
  <path class="cls-1" d="m1164.64,1.01c-2.28,1.85-4.57,3.66-6.87,5.41-47.58,36.26-94.98,33.58-135.08,26.17-29.37-5.42-58.54-14.51-86.73-23.3-7.45-2.32-14.97-4.64-22.51-6.92-4.66-.13-9.31-.29-13.97-.4,12.08,3.48,24.06,7.19,35.92,10.88,28.25,8.81,57.47,17.92,86.96,23.36,14.03,2.59,28.96,4.61,44.47,4.61,29.28,0,60.68-7.17,92.19-31.17,3.75-2.86,7.47-5.86,11.15-8.94-1.84.11-3.69.21-5.53.3Z"/>
  <path class="cls-1" d="m620.53,1.96c-23.82,3.77-47.96,7.21-71.77,9.29-65.54,5.7-136.92,9.03-201.82-9.72-4.2,0-8.41-.01-12.61-.02,18.78,6.35,39,10.99,60.81,13.95,53.06,7.21,107.2,3.5,153.78-.56,30.05-2.61,60.57-7.39,90.35-12.28-6.24-.33-12.49-.55-18.74-.66Z"/>
  <path class="cls-1" d="m1107.01,1.11c-25.16,7.37-51.32,6.23-82.08.79-5.73.07-11.46.27-17.19.35,1.53.32,3.07.64,4.6.95,16.99,3.44,36.4,6.74,55.91,6.74,4.75,0,9.51-.19,14.24-.64,12.01-1.11,23.45-3.74,34.49-7.92-3.32-.11-6.64-.21-9.96-.27Z"/>
</svg>