<svg width="2400" height="960" viewBox="0 0 2400 960" fill="none" xmlns="http://www.w3.org/2000/svg">
<g clip-path="url(#clip0_202_2)">
<path d="M3113.98 -75.7147C2752.19 -20.9858 2184.96 89.7718 2473.53 439.405C2840.76 884.339 3738.14 767.779 3339.58 1111.19" stroke="black" stroke-width="8.2894"/>
<path d="M2997.33 -19.9055C2635.54 34.8234 2068.31 145.581 2356.88 495.214C2724.11 940.148 3621.49 823.588 3222.93 1167" stroke="black" stroke-width="8.2894"/>
<path d="M2875.48 23.3878C2513.68 78.1167 1946.46 188.874 2235.03 538.508C2602.25 983.441 3499.64 866.881 3101.08 1210.29" stroke="black" stroke-width="8.2894"/>
<path d="M2749.52 52.6382C2387.72 107.367 1820.49 218.125 2109.06 567.758C2476.29 1012.69 3373.68 896.132 2975.12 1239.54" stroke="black" stroke-width="8.2894"/>
<path d="M2621.08 67.7076C2259.29 122.437 1692.06 233.194 1980.63 582.828C2347.86 1027.76 3245.24 911.201 2846.68 1254.61" stroke="black" stroke-width="8.2894"/>
<path d="M2491.79 70.0933C2129.99 124.822 1562.77 235.58 1851.34 585.213C2218.56 1030.15 3115.95 913.587 2717.39 1257" stroke="black" stroke-width="8.2894"/>
<path d="M2362.7 62.4313C2000.91 117.16 1433.68 227.918 1722.25 577.551C2089.48 1022.48 2986.86 905.925 2588.3 1249.34" stroke="black" stroke-width="8.2894"/>
<path d="M2234.23 47.6887C1872.44 102.418 1305.21 213.175 1593.78 562.809C1961 1007.74 2858.39 891.182 2459.83 1234.6" stroke="black" stroke-width="8.2894"/>
<path d="M2106.33 28.5925C1744.54 83.3214 1177.31 194.079 1465.88 543.713C1833.11 988.646 2730.49 872.086 2331.93 1215.5" stroke="black" stroke-width="8.2894"/>
<path d="M1978.77 7.38916C1616.97 62.1181 1049.75 172.876 1338.32 522.509C1705.54 967.442 2602.93 850.882 2204.37 1194.3" stroke="black" stroke-width="8.2894"/>
<path d="M1851.26 -14.1702C1489.47 40.5587 922.241 151.316 1210.81 500.95C1578.04 945.883 2475.42 829.323 2076.86 1172.74" stroke="black" stroke-width="8.2894"/>
<path d="M1723.6 -34.7657C1361.81 19.9631 794.577 130.721 1083.15 480.354C1450.37 925.288 2347.76 808.728 1949.2 1152.14" stroke="black" stroke-width="8.2894"/>
<path d="M1595.64 -53.4309C1233.84 1.29798 666.616 112.056 955.187 461.689C1322.41 906.622 2219.8 790.062 1821.24 1133.48" stroke="black" stroke-width="8.2894"/>
<path d="M1467.33 -69.4768C1105.53 -14.7479 538.301 96.0097 826.872 445.643C1194.1 890.577 2091.48 774.016 1692.93 1117.43" stroke="black" stroke-width="8.2894"/>
<path d="M1338.66 -82.437C976.865 -27.7081 409.637 83.0495 698.208 432.683C1065.43 877.616 1962.82 761.056 1564.26 1104.47" stroke="black" stroke-width="8.2894"/>
<path d="M1208.91 -92.1367C847.11 -37.4078 279.881 73.3498 568.452 422.983C935.679 867.917 1833.07 751.357 1434.51 1094.77" stroke="black" stroke-width="8.2894"/>
<path d="M1079.81 -99.6025C718.011 -44.8736 150.782 65.8839 439.353 415.517C806.58 860.451 1703.97 743.891 1305.41 1087.3" stroke="black" stroke-width="8.2894"/>
<path d="M950.614 -105.203C588.818 -50.4744 21.5895 60.2832 310.16 409.917C677.387 854.85 1574.77 738.29 1176.21 1081.7" stroke="black" stroke-width="8.2894"/>
<path d="M821.345 -108.683C459.55 -53.9537 -107.679 56.8039 180.892 406.437C548.118 851.371 1445.51 734.811 1046.95 1078.22" stroke="black" stroke-width="8.2894"/>
<path d="M692.035 -109.72C330.239 -54.9911 -236.989 55.7665 51.5816 405.4C418.808 850.333 1316.19 733.773 917.635 1077.19" stroke="black" stroke-width="8.2894"/>
<path d="M562.733 -107.906C200.937 -53.177 -366.291 57.5806 -77.7204 407.214C289.506 852.147 1186.89 735.587 788.333 1079" stroke="black" stroke-width="8.2894"/>
<path d="M433.523 -102.701C71.7274 -47.9725 -495.501 62.7851 -206.931 412.419C160.296 857.352 1057.68 740.792 659.123 1084.21" stroke="black" stroke-width="8.2894"/>
<path d="M304.544 -93.3782C-57.2512 -38.6493 -624.48 72.1083 -335.909 421.742C31.3175 866.675 928.704 750.115 530.144 1093.53" stroke="black" stroke-width="8.2894"/>
<path d="M176.039 -78.9132C-185.756 -24.1843 -752.985 86.5733 -464.414 436.207C-97.1874 881.14 800.199 764.58 401.639 1107.99" stroke="black" stroke-width="8.2894"/>
<path d="M48.4472 -57.8308C-313.348 -3.10192 -880.577 107.656 -592.006 457.289C-224.78 902.223 672.607 785.663 274.047 1129.08" stroke="black" stroke-width="8.2894"/>
<path d="M-77.35 -28.0239C-439.146 26.705 -1006.37 137.463 -717.803 487.096C-350.577 932.029 546.81 815.469 148.25 1158.88" stroke="black" stroke-width="8.2894"/>
<path d="M-199.462 11.7346C-561.258 66.4635 -1128.49 177.221 -839.916 526.855C-472.689 971.788 424.698 855.228 26.1379 1198.64" stroke="black" stroke-width="8.2894"/>
</g>
<defs>
<clipPath id="clip0_202_2">
<rect width="2400" height="960" fill="white"/>
</clipPath>
</defs>
</svg>
